<svg xmlns="http://www.w3.org/2000/svg" viewBox="0 0 382.42 291.52"><defs><style>.cls-1{fill:#520086;}</style></defs><g id="Capa_2" data-name="Capa 2"><g id="Capa_1-2" data-name="Capa 1"><path class="cls-1" d="M151.06,263.88c-3.71,8.33-7.36,16.72-11.14,25-1.42,3.13-3.52,2.67-6.83,2.43a136.89,136.89,0,0,1-21.6-3.27,3.82,3.82,0,0,1-3.17-3.61q-1.53-13.31-3-26.62a5.18,5.18,0,0,0-3.26-4.46,132.84,132.84,0,0,0-12.11-5.61,6.36,6.36,0,0,0-5.9.82q-11.1,7.22-22.18,14.5-3,2-5.46-.15-9-8-18-16-1.68-1.49-.47-4.07,6.06-12.81,12.3-25.53,1.09-2.22-.65-5-3.48-5.53-7-11.05c-1.47-2.33-3.3-2.74-6.13-2.71q-20.28.24-25.65.35a3.83,3.83,0,0,1-4.24-3Q3.34,184.35.16,172.73a3.49,3.49,0,0,1,1.78-4.19q12-7.62,24.3-14.84c1.55-.91,2-3.13,2.07-5q.12-4.72.29-9.44c.14-3.87-.57-6.1-3.76-8.07q-11.76-7.25-23.18-14.33a1.78,1.78,0,0,1-.79-2A253.41,253.41,0,0,1,9.23,89c.53-1.4,1.82-2.08,3.85-2q14,.28,27.94.66a5,5,0,0,0,4.41-2.33q3.06-4.29,6-8.59A5.65,5.65,0,0,0,52,70.79Q46.33,58.52,40.52,46.33c-1.12-2.35-.16-3.72,1.73-5.28Q55.83,29.77,61.43,25.36a3.7,3.7,0,0,1,4.79,0Q77.59,33.09,89,40.75a5.89,5.89,0,0,0,5.78.76c3.95-1.6,10.82-3.48,11.33-7.57q1.77-14.23,3.64-27.82a3.32,3.32,0,0,1,2.9-2.85L139.57,0a3.72,3.72,0,0,1,3.89,2.27q5.61,13.44,11.48,27c.54,1.25,2.31,2,3.78,2.21,1.81.27,4.25.74,7.35,1.38a4.92,4.92,0,0,0,5.11-1.9q8.63-10.46,17.4-20.83a3.66,3.66,0,0,1,4.8-1.2q12.13,5.54,24.08,11.38c2.18,1.06,3,2.45,2.57,4.81q-2.25,13.23-4.48,26.47a6.18,6.18,0,0,1-1.24,2.85q-9.39,12.32-19,24.49a.36.36,0,0,1-.55.08,86.1,86.1,0,0,0-70.38-15.47C64.47,76.92,38.51,147.86,75.21,197.22A84.7,84.7,0,0,0,124,228.92q31.22,7.07,60-8.44a115.05,115.05,0,0,0,10.76-7,.39.39,0,0,1,.6.09q9.17,11.68,18.24,23.37a5.63,5.63,0,0,1,1.16,2.71q2.08,13.88,4.33,27.74c.43,2.59-1,3.78-3.21,4.86l-21.51,10.2c-3,1.45-4.13-.38-6.12-2.76q-8-9.51-15.74-19.14a5.44,5.44,0,0,0-5.33-1.86q-5.92.78-11.82,1.78A5.18,5.18,0,0,0,151.06,263.88Z"/><circle class="cls-1" cx="224.36" cy="97.38" r="14.97" transform="translate(108.81 312.95) rotate(-85.27)"/><path class="cls-1" d="M154.33,112a25.23,25.23,0,0,0-15.17-1.53c-4.33.89-7.61,3-7.59,7.71,0,7.38,8.83,11.4,15.3,13.64,18.79,6.49,41.35,13.21,41.84,37.72q.3,14.68-8.81,24.48c-7.74,8.35-18.69,11.88-30.14,13.11-15.72,1.7-42.93-2.49-49.58-20.34a31.13,31.13,0,0,1-1.41-9.89q-.13-6.67,0-13.36a.33.33,0,0,1,.37-.36H125a.32.32,0,0,1,.37.37c.06,3.56-.52,8.55.72,11.42,3.11,7.1,17.16,7.32,23.24,6.06,9-1.87,12.88-9.85,5.37-16.63-2.34-2.12-7.56-4.26-11.36-5.61-11.22-4-21.35-7.5-30.14-14.37-9-7.07-12.6-17.82-11.57-29.08,3-32.47,41-35.32,64.82-27.92,9.45,2.93,18.56,9.5,18.56,20.26q0,8.39,0,16.82a.25.25,0,0,1-.25.25h-26a.33.33,0,0,1-.37-.36C158.3,119.83,159.74,114.26,154.33,112Z"/><path class="cls-1" d="M324.79,181c8.86-4.25,9.59-20.25.45-24.16-1.82-.79-5.52-1.17-11.08-1.17h-12a.34.34,0,0,0-.38.38v25.67a.34.34,0,0,0,.38.37q7.53,0,15.07,0C320.73,182.11,323.24,181.73,324.79,181Zm-23-71.27.05,22.37a.39.39,0,0,0,.39.39l14.25,0a10.63,10.63,0,0,0,10.61-10.65v-1.88a10.64,10.64,0,0,0-10.65-10.61l-14.26,0a.4.4,0,0,0-.39.39m41.46,33.48c1.55.71,3.4,1.22,4.72,2q11.27,6.19,13.42,19.34c3.35,20.32-10,37.15-30.17,40.14a83.8,83.8,0,0,1-12,.9q-30.14,0-60.25,0a.35.35,0,0,1-.4-.39V184.21a.38.38,0,0,1,.43-.42h12.48a.39.39,0,0,0,.45-.44l0-75.16a.3.3,0,0,0-.34-.33H259a.37.37,0,0,1-.43-.42V86.52a.34.34,0,0,1,.38-.38q49.08-.11,61.77,0c7.27.06,16.11,1.62,22.75,5.87,18.26,11.7,18.32,39.14-.28,50.59-.38.23-.36.43,0,.61"/><path class="cls-1" d="M209.93,184.51v-44a.22.22,0,0,0-.22-.22H198.5a.22.22,0,0,1-.22-.23l0-20.36a.22.22,0,0,1,.23-.22h40.09a.22.22,0,0,1,.22.22v64.8a.22.22,0,0,0,.23.22h10.42a.23.23,0,0,1,.23.23v20.36a.22.22,0,0,1-.23.22H199.28a.22.22,0,0,1-.22-.22V185a.22.22,0,0,1,.22-.23h10.43A.22.22,0,0,0,209.93,184.51Z"/><rect class="cls-1" x="276.02" y="218.22" width="5.13" height="22.75" rx="0.28"/><rect class="cls-1" x="285.01" y="218.22" width="5.13" height="22.75" rx="0.28"/><path class="cls-1" d="M316.14,234.13c.13,2.45,1.5,3.54,4.1,3.24a1.82,1.82,0,0,0,1.62-1.8v-6.78a.54.54,0,0,0-.41-.56C316.83,226.65,316,230.64,316.14,234.13Zm5.13,5.49-.89.81a.57.57,0,0,1-.13.08c-13.43,5.94-11.94-22.18,1.23-15.47.24.13.37,0,.37-.23v-6.18c0-.28.13-.42.41-.42l4.25,0a.36.36,0,0,1,.41.4v22a.33.33,0,0,1-.38.38h-4.32a.34.34,0,0,1-.38-.37l0-.74c0-.51-.2-.58-.56-.24"/><rect class="cls-1" x="349.33" y="218.21" width="5.11" height="22.75" rx="0.24"/><rect class="cls-1" x="359.09" y="217.53" width="3.97" height="5.35" rx="0.23" transform="translate(139.61 580.51) rotate(-89.8)"/><path class="cls-1" d="M377.25,236.13l.21-6.72a1.35,1.35,0,0,0-1.32-1.39l-1.08,0a3.49,3.49,0,0,0-3.45,3.52l-.06,2.18a3.49,3.49,0,0,0,3.21,3.73l1.08,0A1.37,1.37,0,0,0,377.25,236.13Zm-.5,3.49-.53.51a2.23,2.23,0,0,1-.62.41c-8.15,3.72-10.78-6.23-8.5-11.74,1.75-4.26,5.66-5.91,9.87-3.76.25.13.37,0,.37-.23v-6.18a.37.37,0,0,1,.41-.42l4.26,0a.35.35,0,0,1,.4.4v22a.33.33,0,0,1-.37.38h-4.32a.34.34,0,0,1-.39-.37v-.74a.34.34,0,0,0-.58-.24"/><path class="cls-1" d="M246.24,233.27l4.46-13.89a.25.25,0,0,1,.23-.17h5a.25.25,0,0,1,.23.33l-7.31,21.27a.23.23,0,0,1-.24.16h-5.31a.23.23,0,0,1-.24-.16l-7.31-21.27a.25.25,0,0,1,.23-.33h5.11a.24.24,0,0,1,.23.17l4.48,13.89A.25.25,0,0,0,246.24,233.27Z"/><path class="cls-1" d="M266.75,233.31c-1.64,0-4.16.25-4.81,2.05a1.8,1.8,0,0,0,1.3,2.37,4,4,0,0,0,3.51-.72.94.94,0,0,0,.36-.73v-2.61A.33.33,0,0,0,266.75,233.31Zm-.07,6.19c-3.38,3-9.13,2.58-9.85-2.65-.78-5.53,5.4-6.5,9.79-6.55a.38.38,0,0,0,.42-.4c.19-3.58-6.5-2-8.37-1a.34.34,0,0,1-.49-.3l0-3.2a.56.56,0,0,1,.46-.59c3.48-.92,10.74-1.7,12.87,2.32,1.4,2.66.69,10.11.68,13.46a.34.34,0,0,1-.39.39h-4.3c-.25,0-.37-.12-.38-.38v-.91c0-.36-.14-.42-.41-.18"/><path class="cls-1" d="M302.75,233.31c-1.64,0-4.16.25-4.81,2.05a1.8,1.8,0,0,0,1.3,2.37,4,4,0,0,0,3.5-.72.91.91,0,0,0,.36-.73v-2.61A.32.32,0,0,0,302.75,233.31Zm-.08,6.19c-3.37,3-9.12,2.57-9.85-2.65-.76-5.53,5.41-6.5,9.79-6.55a.37.37,0,0,0,.42-.4c.2-3.58-6.5-2-8.36-1a.34.34,0,0,1-.5-.3v-3.2a.56.56,0,0,1,.45-.59c3.48-.92,10.75-1.7,12.87,2.32,1.4,2.66.7,10.11.68,13.46,0,.27-.12.39-.39.39h-4.29c-.26,0-.39-.12-.39-.38v-.91q0-.54-.42-.18"/><path class="cls-1" d="M338.24,238c1.86,0,3.36-2.34,3.36-5.22s-1.52-5.21-3.37-5.21-3.36,2.33-3.35,5.22S336.39,238,338.24,238Zm8.41-4.2a7.68,7.68,0,0,1-7.69,7.64h-1.5a7.68,7.68,0,0,1-7.64-7.69v-2a7.68,7.68,0,0,1,7.7-7.64H339a7.66,7.66,0,0,1,7.63,7.69v2"/><rect class="cls-1" x="358.51" y="224.56" width="5.13" height="16.41" rx="0.24"/></g></g></svg>